<!DOCTYPE svg PUBLIC "-//W3C//DTD SVG 1.1//EN" "http://www.w3.org/Graphics/SVG/1.1/DTD/svg11.dtd">
<!-- Uploaded to: SVG Repo, www.svgrepo.com, Transformed by: SVG Repo Mixer Tools -->
<svg width="800px" height="800px" viewBox="0 0 24 24" fill="none" xmlns="http://www.w3.org/2000/svg">
<g id="SVGRepo_bgCarrier" stroke-width="0"/>
<g id="SVGRepo_tracerCarrier" stroke-linecap="round" stroke-linejoin="round"/>
<g id="SVGRepo_iconCarrier">
<path fill-rule="evenodd" clip-rule="evenodd" d="M7.25 10.5a3.75 3.75 0 1 1 0-7.5 3.75 3.75 0 0 1 0 7.5zm-1.543 9.207a1 1 0 0 1-1.414-1.414l14-14a1 1 0 1 1 1.414 1.414l-14 14zM13 17.25a3.75 3.75 0 1 0 7.5 0 3.75 3.75 0 0 0-7.5 0zM7.25 8.5a1.75 1.75 0 1 0 0-3.5 1.75 1.75 0 0 0 0 3.5zm11.25 8.75a1.75 1.75 0 1 1-3.5 0 1.75 1.75 0 0 1 3.5 0z" fill="#04FEAF"/>
</g>
</svg>